# xmcd CD database file
#
# Track frame offsets:
#	150
#	18995
#	36027
#	54255
#	72312
#
# Disc length: 1175 seconds
#
# Revision: 1
# Processed by: cddbd v1.5.1PL0 Copyright (c) Steve Scherf et al.
# Submitted via: CDex 1.51
#
DISCID=37049505
DTITLE=Jon Secada - Stop Promo
DYEAR=2000
DGENRE=R&B
TTITLE0=Stop(Radio Edit)
TTITLE1=Stop(Jonathon Peters Radio Edit)
TTITLE2=Stop(Pablo Flores English Radio Edit)
TTITLE3=Stop(Jonathon Peters AC Radio Mix)
TTITLE4=Stop(Jonathon Peters Spanglish Version)
EXTD=YEAR: 2000
EXTT0=
EXTT1=
EXTT2=
EXTT3=
EXTT4=
PLAYORDER=
